<?xml version="1.0" encoding="UTF-8"?>
<svg xmlns="http://www.w3.org/2000/svg" version="1.1" viewBox="0 0 177.3 157.2">
  <defs>
    <style>
      .cls-1 {
        fill: none;
        stroke: #000;
        stroke-miterlimit: 10;
        stroke-width: .4px;
      }
    </style>
  </defs>
  <!-- Generator: Adobe Illustrator 28.7.2, SVG Export Plug-In . SVG Version: 1.2.0 Build 154)  -->
  <g>
    <g id="Layer_2">
      <path id="outline" d="M166.5,56.5c-3-15.8-8.8-27.2-18.3-35.8-.7-.6-1.3-1.2-2-1.8-4.9-4.6-10-9.3-16.5-11.6-2.5-.9-4.6-.9-6.2.1-2.7,1.6-3.2,5.4-3.3,6.6,0,.1,0,.2,0,.2-.3,1.7.9,3.3,3,4,5.1,1.6,9.9,4.7,15.3,9.8,7.7,7.4,12.1,15.3,13.4,24.4.2,1.2,0,2-.4,2.4-.4.3-1.2.3-2.3,0-.3,0-.5-.2-.8-.4-.1,0-.2-.1-.3-.2-6.9-3.1-14.1-4.9-21.3-5.1-7.8-.3-15,1.4-21.6,5-.5.3-1.1.5-1.4.5-.2-.4-.3-1.3-.4-1.7,0-.8-.1-1.7-.2-2.5,0-1.5-.1-3.1-.5-4.6-.6-2.4-1.8-3.4-2.7-3.8-1.3-.6-2.9-.5-4.6.4-2.3,1.1-4.3,2.7-6.3,4.3-2.1,1.6-3.8,2.2-5.9,2.1-4.7-.3-10.2-.4-15.6,1.7-1.9.7-3.2.2-4.9-1-2.7-1.9-5.5-3.4-8.3-4.4-1.6-.6-3-.5-4.2.2-1.3.7-2.1,2.2-2.4,4-.7,4.2.1,8.5,2.4,13.7.9,2,.7,3.6.2,5.6-.8,3-1.1,6-1.1,8.7,0,2,.6,3.9,1,5.7,0,.3.2.6.2,1-5.5,0-26.8.9-35.5,1.8-5,.5-8.5,3.1-10.1,7.5-1.7,4.7-.2,10.9,3.4,13.8,4.3,3.5,8.2,3.6,13.4.2,1.6-1,3.1-1.1,5.2-.9,5.9.5,11.2.9,16.6.9,3,0,6.4-.3,8.5-2.8,1,.1,2,.3,2.9.4,2.5.4,4.9.8,7.4.9,2.2,0,3.2,1.2,4,2.8.3.7.6,1.5.8,2.4,1,4.2.9,8.6.7,12.8,0,1.8-.1,3.7-.1,5.6,0,4.7.2,8.6.7,12.6.3,2.1,1.1,4.4,2.3,6.6,1.1,1.9,2.7,2.9,4.5,2.9s0,0,0,0c1.9,0,3.6-1.2,4.7-3.2.9-1.6,1.3-3,1.4-4.3.2-3.2.2-6.4.2-9.6,0-1.2,0-2.4,0-3.5,0-1.2,0-2.4,0-3.5,0-2.7,0-5.5.2-8.2.1-1.7,1.3-2.8,2.4-2.8,1.2,0,2.2.9,2.7,2.7.2.5.2,1.1.2,1.7,0,2.3,0,4.6,0,6.8,0,4,0,8,0,12.1,0,3.3.3,6.7,2.7,9.4,1.5,1.7,3.3,2.5,5.2,2.2,1.8-.3,3.3-1.5,4.1-3.5,1-2.2,1.5-4.2,1.5-6,.3-8.8.3-15.9.2-22.6,0-5.3,2.1-8.4,6.7-9.5,4.6-1.1,9.3-1.5,12.8-1.8,2.6-.2,5.4,0,8.4.4,2.9.4,4.7,2.4,5,5.4.2,2.1.3,4.4.3,7,0,.6,0,1.3,0,2.2,0,11.3,0,22,.5,23.8.9,3.1,4,5.3,6.9,5.1,3.2-.3,5.6-3,6-6.6.2-1.9.8-9.6.8-13.2,0-3,0-6.1,0-9.1,0-3.7,0-7.4,0-11.1,0-1.2.4-2.3,1.1-2.9.5-.4,1.1-.7,1.7-.6,1.2,0,2.4.6,2.4,3.6,0,1.9,0,3.8-.1,5.7,0,1.1,0,2.3,0,3.4v4.8c-.2,5.9-.3,12-.4,18,0,1.2.2,2.5.8,4,.8,2.3,2.6,3.7,5.1,4.1.3,0,.5,0,.7,0,2,0,3.7-1.1,4.9-3.3.4-.8.8-1.6.9-2.4.3-2.5.6-4.8.7-6.9.3-5.1.6-10.2.9-15.2.3-4.9.5-9.9.8-14.8.1-2.2.3-4.4.5-6.6.3-3.6.6-7.4.7-11.1.4-11.6-.6-23.3-2.7-34.7ZM168.4,91.2c-.2,5.9-.8,11.8-1.1,17.7-.6,10-1.1,20-1.7,30-.1,2.3-.4,4.6-.7,6.9,0,.7-.5,1.5-.8,2.1-1,1.9-2.6,3.1-4.8,2.8-2.1-.3-3.7-1.5-4.4-3.5-.4-1.2-.7-2.5-.7-3.8,0-7.6.2-15.2.4-22.7,0-3,.2-6,.2-9.1,0-2.9-1-4.3-3.2-4.5-2-.1-3.6,1.6-3.7,4.3-.1,6.7,0,13.5-.1,20.3,0,3.4-.6,11-.8,13.1-.3,3.3-2.5,5.6-5.2,5.9-2.4.2-5.2-1.7-6-4.5-.6-2.2-.5-20.5-.5-25.8,0-2.4,0-4.8-.3-7.1-.3-3.4-2.3-5.7-5.7-6.2-2.8-.4-5.8-.6-8.6-.4-4.3.4-8.7.9-12.9,1.9-5.2,1.2-7.4,4.9-7.3,10.3.1,7.5,0,15-.2,22.5,0,1.9-.7,3.9-1.5,5.7-1.6,3.6-5.4,4-7.9,1.1-2.2-2.5-2.5-5.7-2.5-8.9,0-6.3,0-12.6,0-18.9,0-.6,0-1.3-.3-1.9-.7-2.2-2-3.4-3.5-3.3-1.5,0-3,1.5-3.2,3.6-.2,3.9-.1,7.8-.2,11.7,0,4.4,0,8.7-.2,13.1,0,1.3-.6,2.8-1.3,4-1.9,3.5-5.8,3.7-7.8.2-1.1-1.9-2-4.1-2.2-6.3-.5-4.1-.6-8.3-.7-12.5,0-6.2.9-12.5-.6-18.6-.2-.9-.5-1.7-.9-2.5-.9-1.9-2.2-3.2-4.7-3.3-3.4-.1-6.9-.9-10.7-1.4-1.9,2.6-5.1,2.9-8.1,2.9-5.5,0-11-.5-16.5-.9-2.1-.2-3.9-.1-5.7,1.1-4.9,3.2-8.5,3.1-12.5-.2-3.3-2.7-4.8-8.5-3.2-12.9,1.6-4.4,5.1-6.5,9.4-6.9,9.9-1,34.4-2,36.4-1.8-.4-2.2-1.4-4.8-1.4-7.5,0-2.8.3-5.8,1-8.5.6-2.2.7-4-.2-6.1-1.8-4.2-3.1-8.6-2.3-13.3.5-3.1,2.6-4.7,5.5-3.6,2.8,1,5.6,2.5,8.1,4.3,1.9,1.3,3.5,1.9,5.7,1.1,4.9-1.8,10.1-2,15.2-1.6,2.6.2,4.6-.7,6.5-2.3,2-1.5,4-3.1,6.2-4.2,3.1-1.5,5.3-.5,6.1,2.9.5,2.3.4,4.7.6,7,0,.8.2,1.9.7,2.4.4.3,1.6-.1,2.2-.5,6.6-3.6,13.7-5.2,21.1-4.9,7.3.3,14.3,2,21,5.1.4.2.8.4,1.2.5,2.8,1,4.2-.2,3.8-3.2-1.4-10-6.4-18-13.6-24.8-4.6-4.3-9.5-8.1-15.6-10-1.5-.5-2.7-1.6-2.5-3.1.2-1.2.7-9.2,8.4-6.3,7.1,2.6,12.7,8.3,18.1,13.3,10.5,9.5,15.5,21.8,18,35.4,2.1,11.4,3,22.9,2.7,34.5Z"/>
      <path id="cat" d="M51.8,103.4c-1.9,2.6-5.1,2.9-8.1,2.9-5.5,0-11-.5-16.5-.9-2.1-.2-3.9-.1-5.7,1.1-4.9,3.2-8.5,3.1-12.5-.2-3.3-2.7-4.8-8.5-3.2-12.9,1.6-4.4,5.1-6.5,9.4-6.9,9.9-1,34.4-2,36.4-1.8-.4-2.2-1.4-4.8-1.4-7.5,0-2.8.3-5.8,1-8.5.6-2.2.7-4-.2-6.1-1.8-4.2-3.1-8.6-2.3-13.3.5-3.1,2.6-4.7,5.5-3.6,2.8,1,5.6,2.5,8.1,4.3,1.9,1.3,3.5,1.9,5.7,1.1,4.9-1.8,10.1-2,15.2-1.6,2.6.2,4.6-.7,6.5-2.3,2-1.5,4-3.1,6.2-4.2,3.1-1.5,5.3-.5,6.1,2.9.5,2.3.4,4.7.6,7,0,.8.2,1.9.7,2.4.4.3,1.6-.1,2.2-.5,6.6-3.6,13.7-5.2,21.1-4.9,7.3.3,14.3,2,21,5.1.4.2.8.4,1.2.5,2.8,1,4.2-.2,3.8-3.2-1.4-10-6.4-18-13.6-24.8-4.6-4.3-9.5-8.1-15.6-10-1.5-.5-2.7-1.6-2.5-3.1.2-1.2.7-9.2,8.4-6.3,7.1,2.6,12.7,8.3,18.1,13.3,10.5,9.5,15.5,21.8,18,35.4,2.1,11.4,3,22.9,2.7,34.5-.2,5.9-.8,11.8-1.1,17.7-.6,10-1.1,20-1.7,30-.1,2.3-.4,4.6-.7,6.9,0,.7-.5,1.5-.8,2.1-1,1.9-2.6,3.1-4.8,2.8-2.1-.3-3.7-1.5-4.4-3.5-.4-1.2-.7-2.5-.7-3.8,0-7.6.2-15.2.4-22.7,0-3,.2-6,.2-9.1,0-2.9-1-4.3-3.2-4.5-2-.1-3.6,1.6-3.7,4.3-.1,6.7,0,13.5-.1,20.3,0,3.4-.6,11-.8,13.1-.3,3.3-2.5,5.6-5.2,5.9-2.4.2-5.2-1.7-6-4.5-.6-2.2-.5-20.5-.5-25.8,0-2.4,0-4.8-.3-7.1-.3-3.4-2.3-5.7-5.7-6.2-2.8-.4-5.8-.6-8.6-.4-4.3.4-8.7.9-12.9,1.9-5.2,1.2-7.4,4.9-7.3,10.3.1,7.5,0,15-.2,22.5,0,1.9-.7,3.9-1.5,5.7-1.6,3.6-5.4,4-7.9,1.1-2.2-2.5-2.5-5.7-2.5-8.9,0-6.3,0-12.6,0-18.9,0-.6,0-1.3-.3-1.9-.7-2.2-2-3.4-3.5-3.3-1.5,0-3,1.5-3.2,3.6-.2,3.9-.1,7.8-.2,11.7,0,4.4,0,8.7-.2,13.1,0,1.3-.6,2.8-1.3,4-1.9,3.5-5.8,3.7-7.8.2-1.1-1.9-2-4.1-2.2-6.3-.5-4.1-.6-8.3-.7-12.5,0-6.2.9-12.5-.6-18.6-.2-.9-.5-1.7-.9-2.5-.9-1.9-2.2-3.2-4.7-3.3-3.4-.1-6.9-.9-10.7-1.4ZM52.6,87.1c0,4.4,0,8.1,0,11.8,0,3.3,0,3.4,3.3,4,12.3,2.1,24.3.6,36.5-1.7s25.1-14.2,25.8-15.2c-1.3-.4-22.7.2-31.9.3-.6,0-1.3,0-1.9.2-.5.2-1.2.6-1.2,1.1-.3,2.8-1.8,4-5.3,2.5-2.2,1.9-5.2,1.3-5.3-.6-.1-2.7-6.5-2.4-7.6-2.4-4,0-8.1,0-12.3,0ZM90.2,80.6c4.1,0,7.5-3.1,7.6-7.1.1-4.1-3.2-7.5-7.3-7.6-4,0-7.4,3.3-7.5,7.2,0,4,3.1,7.3,7.2,7.4ZM63.1,81.4c4.1,0,7.3-3.2,7.3-7.1,0-4.1-3.3-7.3-7.4-7.2-4,0-7.3,3.4-7.3,7.2,0,3.9,3.3,7.1,7.4,7.1Z"/>
      <path id="knife" d="M86.3,86.4c-.6,0-1.3,0-1.9.2-.5.2-1.2.6-1.2,1.1-.3,2.8-1.8,4-5.3,2.5-2.2,1.9-5.2,1.3-5.3-.6-.1-2.7-6.5-2.4-7.6-2.4-4,0-8.1,0-12.3,0,0,4.4,0,8.1,0,11.8,0,3.3,0,3.4,3.3,4,12.3,2.1,24.3.6,36.5-1.7,13.9-2.6,25.1-14.2,25.8-15.2-1.3-.4-22.7.2-31.9.3Z"/>
      <path id="cut" class="cls-1" d="M8.5,106.9c4.3,3.5,8.2,3.6,13.4.2,1.6-1,3.1-1.1,5.2-.9,5.9.5,11.2.9,16.6.9,3,0,6.4-.3,8.5-2.8,1,.1,2,.3,2.9.4,2.5.4,4.9.8,7.4.9,2.2,0,3.2,1.2,4,2.8.3.7.6,1.5.8,2.4,1,4.2.9,8.6.7,12.8,0,1.8-.1,3.7-.1,5.6,0,4.7.2,8.6.7,12.6.3,2.1,1.1,4.4,2.3,6.6,1.1,1.9,2.7,2.9,4.5,2.9s0,0,0,0c1.9,0,3.6-1.2,4.7-3.2.9-1.6,1.3-3,1.4-4.3.2-3.2.2-6.4.2-9.6,0-1.2,0-2.4,0-3.5,0-1.2,0-2.4,0-3.5,0-2.7,0-5.5.2-8.2.1-1.7,1.3-2.8,2.4-2.8,1.2,0,2.2.9,2.7,2.7.2.5.2,1.1.2,1.7,0,2.3,0,4.6,0,6.8,0,4,0,8,0,12.1,0,3.3.3,6.7,2.7,9.4,1.5,1.7,3.3,2.5,5.2,2.2,1.8-.3,3.3-1.5,4.1-3.5,1-2.2,1.5-4.2,1.5-6,.3-8.8.3-15.9.2-22.6,0-5.3,2.1-8.4,6.7-9.5,4.6-1.1,9.3-1.5,12.8-1.8,2.6-.2,5.4,0,8.4.4,2.9.4,4.7,2.4,5,5.4.2,2.1.3,4.4.3,7,0,.6,0,1.3,0,2.2,0,11.3,0,22,.5,23.8.9,3.1,4,5.3,6.9,5.1,3.2-.3,5.6-3,6-6.6.2-1.9.8-9.6.8-13.2,0-3,0-6.1,0-9.1,0-3.7,0-7.4,0-11.1,0-1.2.4-2.3,1.1-2.9.5-.4,1.1-.7,1.7-.6,1.2,0,2.4.6,2.4,3.6,0,1.9,0,3.8-.1,5.7,0,1.1,0,2.3,0,3.4v4.8c-.2,5.9-.3,12-.4,18,0,1.2.2,2.5.8,4,.8,2.3,2.6,3.7,5.1,4.1.3,0,.5,0,.7,0,2,0,3.7-1.1,4.9-3.3.4-.8.8-1.6.9-2.4.3-2.5.6-4.8.7-6.9.3-5.1.6-10.2.9-15.2.3-4.9.5-9.9.8-14.8.1-2.2.3-4.4.5-6.6.3-3.6.6-7.4.7-11.1.4-11.6-.6-23.3-2.7-34.7-3-15.8-8.8-27.2-18.3-35.8-.7-.6-1.3-1.2-2-1.8-4.9-4.6-10-9.3-16.5-11.6-2.5-.9-4.6-.9-6.2.1-2.7,1.6-3.2,5.4-3.3,6.6,0,.1,0,.2,0,.2-.3,1.7.9,3.3,3,4,5.1,1.6,9.9,4.7,15.3,9.8,7.7,7.4,12.1,15.3,13.4,24.4.2,1.2,0,2-.4,2.4-.4.3-1.2.3-2.3,0-.3,0-.5-.2-.8-.4-.1,0-.2-.1-.3-.2-6.9-3.1-14.1-4.9-21.3-5.1-7.8-.3-15,1.4-21.6,5-.5.3-1.1.5-1.4.5-.2-.4-.3-1.3-.4-1.7,0-.8-.1-1.7-.2-2.5,0-1.5-.1-3.1-.5-4.6-.6-2.4-1.8-3.4-2.7-3.8-1.3-.6-2.9-.5-4.6.4-2.3,1.1-4.3,2.7-6.3,4.3-2.1,1.6-3.8,2.2-5.9,2.1-4.7-.3-10.2-.4-15.6,1.7-1.9.7-3.2.2-4.9-1-2.7-1.9-5.5-3.4-8.3-4.4-1.6-.6-3-.5-4.2.2-1.3.7-2.1,2.2-2.4,4-.7,4.2.1,8.5,2.4,13.7.9,2,.7,3.6.2,5.6-.8,3-1.1,6-1.1,8.7,0,2,.6,3.9,1,5.7,0,.3.2.6.2,1-5.5,0-26.8.9-35.5,1.8-5,.5-8.5,3.1-10.1,7.5-1.7,4.7-.2,10.9,3.4,13.8Z"/>
    </g>
  </g>
</svg>