<?xml version="1.0" encoding="UTF-8"?>
<svg xmlns="http://www.w3.org/2000/svg" version="1.1" viewBox="0 0 177.3 157.2">
  <!-- Generator: Adobe Illustrator 28.7.2, SVG Export Plug-In . SVG Version: 1.2.0 Build 154)  -->
  <g>
    <g id="Layer_2">
      <g>
        <path d="M90.4,79c3.1,0,5.6-2.6,5.6-5.7,0-3.2-2.5-5.5-5.7-5.5-3.2,0-5.6,2.5-5.6,5.6,0,3.1,2.6,5.6,5.7,5.6Z"/>
        <path d="M63.2,79.7c3,0,5.6-2.5,5.6-5.5,0-2.9-2.6-5.5-5.6-5.5-3.2,0-5.6,2.4-5.6,5.6,0,3,2.5,5.4,5.6,5.4Z"/>
        <path d="M165.7,56.7c-2.5-13.6-7.6-25.9-18-35.4-5.5-5-11-10.7-18.1-13.3-7.7-2.8-8.2,5.1-8.4,6.3-.2,1.5,1,2.6,2.5,3.1,6.1,1.9,11,5.7,15.6,10,7.2,6.8,12.2,14.8,13.6,24.8.4,3-1,4.2-3.8,3.2-.4-.2-.8-.4-1.2-.5-6.7-3-13.7-4.8-21-5.1-7.4-.3-14.6,1.3-21.1,4.9-.7.4-1.9.8-2.2.5-.5-.5-.7-1.5-.7-2.4-.2-2.3,0-4.8-.6-7-.8-3.4-3.1-4.4-6.1-2.9-2.2,1.1-4.2,2.7-6.2,4.2-1.9,1.5-3.9,2.4-6.5,2.3-5.1-.3-10.3-.2-15.2,1.6-2.2.8-3.8.2-5.7-1.1-2.5-1.7-5.2-3.3-8.1-4.3-2.9-1-5,.5-5.5,3.6-.7,4.7.5,9.1,2.3,13.3.9,2.1.8,3.9.2,6.1-.7,2.7-1.1,5.7-1,8.5,0,2.7,1,5.3,1.4,7.5-2-.2-26.5.8-36.4,1.8-4.3.4-7.8,2.5-9.4,6.9-1.6,4.4-.2,10.2,3.2,12.9,4,3.2,7.6,3.3,12.5.2,1.8-1.2,3.6-1.2,5.7-1.1,5.5.4,11,.9,16.5.9,3,0,6.2-.3,8.1-2.9,3.8.5,7.2,1.2,10.7,1.4,2.5.1,3.7,1.4,4.7,3.3.4.8.7,1.7.9,2.5,1.5,6.2.6,12.4.6,18.6,0,4.2.2,8.3.7,12.5.3,2.2,1.1,4.4,2.2,6.3,2,3.5,5.9,3.3,7.8-.2.7-1.2,1.2-2.6,1.3-4,.2-4.4.2-8.7.2-13.1,0-3.9,0-7.8.2-11.7.1-2.1,1.7-3.5,3.2-3.6,1.6,0,2.9,1.1,3.5,3.3.2.6.3,1.3.3,1.9,0,6.3,0,12.6,0,18.9,0,3.2.3,6.3,2.5,8.9,2.6,3,6.4,2.5,7.9-1.1.8-1.8,1.4-3.8,1.5-5.7.2-7.5.3-15,.2-22.5,0-5.4,2.1-9.1,7.3-10.3,4.2-1,8.6-1.5,12.9-1.9,2.8-.2,5.8,0,8.6.4,3.3.5,5.3,2.8,5.7,6.2.2,2.4.3,4.7.3,7.1,0,5.3-.1,23.6.5,25.8.8,2.8,3.6,4.7,6,4.5,2.7-.2,4.9-2.5,5.2-5.9.2-2.1.8-9.7.8-13.1,0-6.7,0-13.5.1-20.3,0-2.7,1.7-4.5,3.7-4.3,2.1.1,3.2,1.6,3.2,4.5,0,3-.1,6-.2,9.1-.1,7.6-.3,15.2-.4,22.7,0,1.3.3,2.6.7,3.8.7,2.1,2.3,3.2,4.4,3.5,2.2.3,3.8-.9,4.8-2.8.4-.7.7-1.4.8-2.1.3-2.3.5-4.6.7-6.9.6-10,1.1-20,1.7-30,.3-5.9.9-11.8,1.1-17.7.4-11.6-.5-23.1-2.7-34.5ZM90.4,66c4.1,0,7.4,3.5,7.3,7.6-.1,4-3.5,7.2-7.6,7.1-4.1,0-7.3-3.4-7.2-7.4,0-4,3.5-7.3,7.5-7.2ZM75.7,91.1c-.3,0-.6,0-.9,0,.3,0,.6,0,.9,0ZM63,67c4.1,0,7.4,3.1,7.4,7.2,0,4-3.2,7.1-7.3,7.1-4,0-7.3-3.2-7.4-7.1,0-3.9,3.3-7.2,7.3-7.2Z"/>
      </g>
    </g>
  </g>
</svg>