<?xml version="1.0" encoding="UTF-8"?>
<svg xmlns="http://www.w3.org/2000/svg" version="1.1" viewBox="0 0 177.3 157.2">
  <!-- Generator: Adobe Illustrator 28.7.2, SVG Export Plug-In . SVG Version: 1.2.0 Build 154)  -->
  <g>
    <g id="Layer_2">
      <g id="eyes">
        <path d="M90.3,67.8c3.2,0,5.7,2.3,5.7,5.5,0,3.1-2.5,5.6-5.6,5.7-3.1,0-5.7-2.5-5.7-5.6,0-3.1,2.5-5.6,5.6-5.6Z"/>
        <path d="M57.6,74.3c0-3.1,2.5-5.6,5.6-5.6,3,0,5.6,2.6,5.6,5.5,0,2.9-2.6,5.4-5.6,5.5-3.1,0-5.6-2.4-5.6-5.4Z"/>
      </g>
      <path id="cat" d="M51.8,103.4c-1.9,2.6-5.1,2.9-8.1,2.9-5.5,0-11-.5-16.5-.9-2.1-.2-3.9-.1-5.7,1.1-4.9,3.2-8.5,3.1-12.5-.2-3.3-2.7-4.8-8.5-3.2-12.9,1.6-4.4,5.1-6.5,9.4-6.9,9.9-1,34.4-2,36.4-1.8-.4-2.2-1.4-4.8-1.4-7.5,0-2.8.3-5.8,1-8.5.6-2.2.7-4-.2-6.1-1.8-4.2-3.1-8.6-2.3-13.3.5-3.1,2.6-4.7,5.5-3.6,2.8,1,5.6,2.5,8.1,4.3,1.9,1.3,3.5,1.9,5.7,1.1,4.9-1.8,10.1-2,15.2-1.6,2.6.2,4.6-.7,6.5-2.3,2-1.5,4-3.1,6.2-4.2,3.1-1.5,5.3-.5,6.1,2.9.5,2.3.4,4.7.6,7,0,.8.2,1.9.7,2.4.4.3,1.6-.1,2.2-.5,6.6-3.6,13.7-5.2,21.1-4.9,7.3.3,14.3,2,21,5.1.4.2.8.4,1.2.5,2.8,1,4.2-.2,3.8-3.2-1.4-10-6.4-18-13.6-24.8-4.6-4.3-9.5-8.1-15.6-10-1.5-.5-2.7-1.6-2.5-3.1.2-1.2.7-9.2,8.4-6.3,7.1,2.6,12.7,8.3,18.1,13.3,10.5,9.5,15.5,21.8,18,35.4,2.1,11.4,3,22.9,2.7,34.5-.2,5.9-.8,11.8-1.1,17.7-.6,10-1.1,20-1.7,30-.1,2.3-.4,4.6-.7,6.9,0,.7-.5,1.5-.8,2.1-1,1.9-2.6,3.1-4.8,2.8-2.1-.3-3.7-1.5-4.4-3.5-.4-1.2-.7-2.5-.7-3.8,0-7.6.2-15.2.4-22.7,0-3,.2-6,.2-9.1,0-2.9-1-4.3-3.2-4.5-2-.1-3.6,1.6-3.7,4.3-.1,6.7,0,13.5-.1,20.3,0,3.4-.6,11-.8,13.1-.3,3.3-2.5,5.6-5.2,5.9-2.4.2-5.2-1.7-6-4.5-.6-2.2-.5-20.5-.5-25.8,0-2.4,0-4.8-.3-7.1-.3-3.4-2.3-5.7-5.7-6.2-2.8-.4-5.8-.6-8.6-.4-4.3.4-8.7.9-12.9,1.9-5.2,1.2-7.4,4.9-7.3,10.3.1,7.5,0,15-.2,22.5,0,1.9-.7,3.9-1.5,5.7-1.6,3.6-5.4,4-7.9,1.1-2.2-2.5-2.5-5.7-2.5-8.9,0-6.3,0-12.6,0-18.9,0-.6,0-1.3-.3-1.9-.7-2.2-2-3.4-3.5-3.3-1.5,0-3,1.5-3.2,3.6-.2,3.9-.1,7.8-.2,11.7,0,4.4,0,8.7-.2,13.1,0,1.3-.6,2.8-1.3,4-1.9,3.5-5.8,3.7-7.8.2-1.1-1.9-2-4.1-2.2-6.3-.5-4.1-.6-8.3-.7-12.5,0-6.2.9-12.5-.6-18.6-.2-.9-.5-1.7-.9-2.5-.9-1.9-2.2-3.2-4.7-3.3-3.4-.1-6.9-.9-10.7-1.4ZM52.6,87.1c0,4.4,0,8.1,0,11.8,0,3.3,0,3.4,3.3,4,12.3,2.1,24.3.6,36.5-1.7s25.1-14.2,25.8-15.2c-1.3-.4-22.7.2-31.9.3-.6,0-1.3,0-1.9.2-.5.2-1.2.6-1.2,1.1-.3,2.8-1.8,4-5.3,2.5-2.2,1.9-5.2,1.3-5.3-.6-.1-2.7-6.5-2.4-7.6-2.4-4,0-8.1,0-12.3,0ZM90.2,80.6c4.1,0,7.5-3.1,7.6-7.1.1-4.1-3.2-7.5-7.3-7.6-4,0-7.4,3.3-7.5,7.2,0,4,3.1,7.3,7.2,7.4ZM63.1,81.4c4.1,0,7.3-3.2,7.3-7.1,0-4.1-3.3-7.3-7.4-7.2-4,0-7.3,3.4-7.3,7.2,0,3.9,3.3,7.1,7.4,7.1Z"/>
    </g>
  </g>
</svg>