<?xml version="1.0" encoding="UTF-8"?>
<svg xmlns="http://www.w3.org/2000/svg" version="1.1" viewBox="0 0 177.3 157.2">
  <!-- Generator: Adobe Illustrator 28.7.2, SVG Export Plug-In . SVG Version: 1.2.0 Build 154)  -->
  <g>
    <g id="Layer_2">
      <path id="knife" d="M86.3,86.4c-.6,0-1.3,0-1.9.2-.5.2-1.2.6-1.2,1.1-.3,2.8-1.8,4-5.3,2.5-2.2,1.9-5.2,1.3-5.3-.6-.1-2.7-6.5-2.4-7.6-2.4-4,0-8.1,0-12.3,0,0,4.4,0,8.1,0,11.8,0,3.3,0,3.4,3.3,4,12.3,2.1,24.3.6,36.5-1.7,13.9-2.6,25.1-14.2,25.8-15.2-1.3-.4-22.7.2-31.9.3Z"/>
      <g id="eyes">
        <path d="M63.2,81.4c4.1,0,7.3-3.2,7.3-7.1,0-4.1-3.3-7.3-7.4-7.2-4,0-7.3,3.4-7.3,7.2,0,3.9,3.3,7.1,7.4,7.1ZM63.2,68.8c3,0,5.6,2.6,5.6,5.5,0,2.9-2.6,5.4-5.6,5.5-3.1,0-5.6-2.4-5.6-5.4,0-3.1,2.5-5.6,5.6-5.6Z"/>
        <path d="M90.2,80.7c4.1,0,7.5-3.1,7.6-7.1.1-4.1-3.2-7.5-7.3-7.6-4,0-7.4,3.3-7.5,7.2,0,4,3.1,7.3,7.2,7.4ZM90.3,67.8c3.2,0,5.7,2.3,5.7,5.5,0,3.1-2.5,5.6-5.6,5.7-3.1,0-5.7-2.5-5.7-5.6,0-3.1,2.5-5.6,5.6-5.6Z"/>
      </g>
    </g>
  </g>
</svg>