<?xml version="1.0" encoding="UTF-8"?>
<svg xmlns="http://www.w3.org/2000/svg" version="1.1" viewBox="0 0 177.3 157.2">
  <!-- Generator: Adobe Illustrator 28.7.2, SVG Export Plug-In . SVG Version: 1.2.0 Build 154)  -->
  <g>
    <g id="Layer_2">
      <g id="eyes">
        <path d="M63.2,81.4c4.1,0,7.3-3.2,7.3-7.1,0-4.1-3.3-7.3-7.4-7.2-4,0-7.3,3.4-7.3,7.2,0,3.9,3.3,7.1,7.4,7.1ZM63.2,68.8c3,0,5.6,2.6,5.6,5.5,0,2.9-2.6,5.4-5.6,5.5-3.1,0-5.6-2.4-5.6-5.4,0-3.1,2.5-5.6,5.6-5.6Z"/>
        <path d="M90.2,80.7c4.1,0,7.5-3.1,7.6-7.1.1-4.1-3.2-7.5-7.3-7.6-4,0-7.4,3.3-7.5,7.2,0,4,3.1,7.3,7.2,7.4ZM90.3,67.8c3.2,0,5.7,2.3,5.7,5.5,0,3.1-2.5,5.6-5.6,5.7-3.1,0-5.7-2.5-5.7-5.6,0-3.1,2.5-5.6,5.6-5.6Z"/>
      </g>
    </g>
  </g>
</svg>