<?xml version="1.0" encoding="utf-8"?>
<!-- Generator: Adobe Illustrator 28.7.2, SVG Export Plug-In . SVG Version: 9.03 Build 54978)  -->
<svg version="1.0" xmlns="http://www.w3.org/2000/svg" xmlns:xlink="http://www.w3.org/1999/xlink" x="0px" y="0px"
	 viewBox="0 0 177.3 157.2" style="enable-background:new 0 0 177.3 157.2;" xml:space="preserve">
<style type="text/css">
	.st0{fill:#EE1C4E;}
	.st1{fill:#BF7E94;}
	.st2{fill:none;stroke:#000000;stroke-width:0.3859;stroke-miterlimit:10;}
	.st3{fill:#9F9F9F;}
	.st4{display:none;}
	.st5{display:inline;}
	.st6{display:none;fill:none;stroke:#000000;stroke-width:0.3859;stroke-miterlimit:10;}
</style>
<g id="Layer_1">
</g>
<g id="Layer_2">
	<path id="outline" d="M166.5,56.5c-3-15.8-8.8-27.2-18.3-35.8c-0.7-0.6-1.3-1.2-2-1.8c-4.9-4.6-10-9.3-16.5-11.6
		c-2.5-0.9-4.6-0.9-6.2,0.1c-2.7,1.6-3.2,5.4-3.3,6.6c0,0.1,0,0.2,0,0.2c-0.3,1.7,0.9,3.3,3,4c5.1,1.6,9.9,4.7,15.3,9.8
		c7.7,7.4,12.1,15.3,13.4,24.4c0.2,1.2,0,2-0.4,2.4c-0.4,0.3-1.2,0.3-2.3-0.1c-0.3-0.1-0.5-0.2-0.8-0.4c-0.1-0.1-0.2-0.1-0.3-0.2
		c-6.9-3.1-14.1-4.9-21.3-5.1c-7.8-0.3-15,1.4-21.6,5c-0.5,0.3-1.1,0.5-1.4,0.5c-0.2-0.4-0.3-1.3-0.4-1.7c-0.1-0.8-0.1-1.7-0.2-2.5
		c-0.1-1.5-0.1-3.1-0.5-4.6c-0.6-2.4-1.8-3.4-2.7-3.8c-1.3-0.6-2.9-0.5-4.6,0.4c-2.3,1.1-4.3,2.7-6.3,4.3c-2.1,1.6-3.8,2.2-5.9,2.1
		c-4.7-0.3-10.2-0.4-15.6,1.7c-1.9,0.7-3.2,0.2-4.9-1c-2.7-1.9-5.5-3.4-8.3-4.4c-1.6-0.6-3-0.5-4.2,0.2c-1.3,0.7-2.1,2.2-2.4,4
		c-0.7,4.2,0.1,8.5,2.4,13.7c0.9,2,0.7,3.6,0.2,5.6c-0.8,3-1.1,6-1.1,8.7c0.1,2,0.6,3.9,1,5.7c0.1,0.3,0.2,0.6,0.2,1
		c-5.5,0-26.8,0.9-35.5,1.8c-5,0.5-8.5,3.1-10.1,7.5c-1.7,4.7-0.2,10.9,3.4,13.8c4.3,3.5,8.2,3.6,13.4,0.2c1.6-1,3.1-1.1,5.2-0.9
		c5.9,0.5,11.2,0.9,16.6,0.9c3,0,6.4-0.3,8.5-2.8c1,0.1,2,0.3,2.9,0.4c2.5,0.4,4.9,0.8,7.4,0.9c2.2,0.1,3.2,1.2,4,2.8
		c0.3,0.7,0.6,1.5,0.8,2.4c1,4.2,0.9,8.6,0.7,12.8c-0.1,1.8-0.1,3.7-0.1,5.6c0.1,4.7,0.2,8.6,0.7,12.6c0.3,2.1,1.1,4.4,2.3,6.6
		c1.1,1.9,2.7,2.9,4.5,2.9c0,0,0,0,0.1,0c1.9,0,3.6-1.2,4.7-3.2c0.9-1.6,1.3-3,1.4-4.3c0.2-3.2,0.2-6.4,0.2-9.6c0-1.2,0-2.4,0-3.5
		c0-1.2,0-2.4,0-3.5c0-2.7,0-5.5,0.2-8.2c0.1-1.7,1.3-2.8,2.4-2.8c1.2-0.1,2.2,0.9,2.7,2.7c0.2,0.5,0.2,1.1,0.2,1.7
		c0,2.3,0,4.6,0,6.8c0,4,0,8,0,12.1c0,3.3,0.3,6.7,2.7,9.4c1.5,1.7,3.3,2.5,5.2,2.2c1.8-0.3,3.3-1.5,4.1-3.5c1-2.2,1.5-4.2,1.5-6
		c0.3-8.8,0.3-15.9,0.2-22.6c-0.1-5.3,2.1-8.4,6.7-9.5c4.6-1.1,9.3-1.5,12.8-1.8c2.6-0.2,5.4-0.1,8.4,0.4c2.9,0.4,4.7,2.4,5,5.4
		c0.2,2.1,0.3,4.4,0.3,7c0,0.6,0,1.3,0,2.2c0,11.3,0,22,0.5,23.8c0.9,3.1,4,5.3,6.9,5.1c3.2-0.3,5.6-3,6-6.6
		c0.2-1.9,0.8-9.6,0.8-13.2c0-3,0-6.1,0.1-9.1c0-3.7,0-7.4,0.1-11.1c0-1.2,0.4-2.3,1.1-2.9c0.5-0.4,1.1-0.7,1.7-0.6
		c1.2,0.1,2.4,0.6,2.4,3.6c0,1.9-0.1,3.8-0.1,5.7c0,1.1-0.1,2.3-0.1,3.4l-0.1,4.8c-0.1,5.9-0.2,12-0.3,18c0,1.2,0.2,2.5,0.8,4
		c0.8,2.3,2.6,3.7,5.1,4.1c0.3,0,0.5,0,0.7,0c2,0,3.7-1.1,4.9-3.3c0.4-0.8,0.8-1.6,0.9-2.4c0.3-2.5,0.6-4.8,0.7-6.9
		c0.3-5.1,0.6-10.2,0.9-15.2c0.3-4.9,0.5-9.9,0.8-14.8c0.1-2.2,0.3-4.4,0.5-6.6c0.3-3.6,0.6-7.4,0.7-11.1
		C169.6,79.7,168.6,68,166.5,56.5z M168.4,91.2c-0.2,5.9-0.8,11.8-1.1,17.7c-0.6,10-1.1,20-1.7,30c-0.1,2.3-0.4,4.6-0.7,6.9
		c-0.1,0.7-0.5,1.5-0.8,2.1c-1,1.9-2.6,3.1-4.8,2.8c-2.1-0.3-3.7-1.5-4.4-3.5c-0.4-1.2-0.7-2.5-0.7-3.8c0.1-7.6,0.2-15.2,0.4-22.7
		c0.1-3,0.2-6,0.2-9.1c0-2.9-1-4.3-3.2-4.5c-2-0.1-3.6,1.6-3.7,4.3c-0.1,6.7-0.1,13.5-0.1,20.3c0,3.4-0.6,11-0.8,13.1
		c-0.3,3.3-2.5,5.6-5.2,5.9c-2.4,0.2-5.2-1.7-6-4.5c-0.6-2.2-0.5-20.5-0.5-25.8c0-2.4-0.1-4.8-0.3-7.1c-0.3-3.4-2.3-5.7-5.7-6.2
		c-2.8-0.4-5.8-0.6-8.6-0.4c-4.3,0.4-8.7,0.9-12.9,1.9c-5.2,1.2-7.4,4.9-7.3,10.3c0.1,7.5,0,15-0.2,22.5c-0.1,1.9-0.7,3.9-1.5,5.7
		c-1.6,3.6-5.4,4-7.9,1.1c-2.2-2.5-2.5-5.7-2.5-8.9c-0.1-6.3,0-12.6,0-18.9c0-0.6-0.1-1.3-0.3-1.9c-0.7-2.2-2-3.4-3.5-3.3
		c-1.5,0.1-3,1.5-3.2,3.6c-0.2,3.9-0.1,7.8-0.2,11.7c-0.1,4.4,0,8.7-0.2,13.1c-0.1,1.3-0.6,2.8-1.3,4c-1.9,3.5-5.8,3.7-7.8,0.2
		c-1.1-1.9-2-4.1-2.2-6.3c-0.5-4.1-0.6-8.3-0.7-12.5c-0.1-6.2,0.9-12.5-0.6-18.6c-0.2-0.9-0.5-1.7-0.9-2.5c-0.9-1.9-2.2-3.2-4.7-3.3
		c-3.4-0.1-6.9-0.9-10.7-1.4c-1.9,2.6-5.1,2.9-8.1,2.9c-5.5-0.1-11-0.5-16.5-0.9c-2.1-0.2-3.9-0.1-5.7,1.1
		c-4.9,3.2-8.5,3.1-12.5-0.2c-3.3-2.7-4.8-8.5-3.2-12.9c1.6-4.4,5.1-6.5,9.4-6.9c9.9-1,34.4-2,36.4-1.8c-0.4-2.2-1.4-4.8-1.4-7.5
		c-0.1-2.8,0.3-5.8,1-8.5c0.6-2.2,0.7-4-0.2-6.1c-1.8-4.2-3.1-8.6-2.3-13.3c0.5-3.1,2.6-4.7,5.5-3.6c2.8,1,5.6,2.5,8.1,4.3
		c1.9,1.3,3.5,1.9,5.7,1.1c4.9-1.8,10.1-2,15.2-1.6c2.6,0.2,4.6-0.7,6.5-2.3c2-1.5,4-3.1,6.2-4.2c3.1-1.5,5.3-0.5,6.1,2.9
		c0.5,2.3,0.4,4.7,0.6,7c0.1,0.8,0.2,1.9,0.7,2.4c0.4,0.3,1.6-0.1,2.2-0.5c6.6-3.6,13.7-5.2,21.1-4.9c7.3,0.3,14.3,2,21,5.1
		c0.4,0.2,0.8,0.4,1.2,0.5c2.8,1,4.2-0.2,3.8-3.2c-1.4-10-6.4-18-13.6-24.8c-4.6-4.3-9.5-8.1-15.6-10c-1.5-0.5-2.7-1.6-2.5-3.1
		c0.2-1.2,0.7-9.2,8.4-6.3c7.1,2.6,12.7,8.3,18.1,13.3c10.5,9.5,15.5,21.8,18,35.4C167.8,68.1,168.7,79.6,168.4,91.2z"/>
	<g id="eyes_00000075841362163178089700000010193536915702381709_" class="st4">
		<path class="st5" d="M90.3,67.8c3.2,0,5.7,2.3,5.7,5.5c0,3.1-2.5,5.6-5.6,5.7c-3.1,0-5.7-2.5-5.7-5.6
			C84.6,70.3,87.1,67.8,90.3,67.8z"/>
		<path class="st5" d="M57.6,74.3c0-3.1,2.5-5.6,5.6-5.6c3,0,5.6,2.6,5.6,5.5c0,2.9-2.6,5.4-5.6,5.5C60.1,79.7,57.6,77.3,57.6,74.3z
			"/>
	</g>
	<path id="cat" class="st4" d="M51.8,103.4c-1.9,2.6-5.1,2.9-8.1,2.9c-5.5-0.1-11-0.5-16.5-0.9c-2.1-0.2-3.9-0.1-5.7,1.1
		c-4.9,3.2-8.5,3.1-12.5-0.2c-3.3-2.7-4.8-8.5-3.2-12.9c1.6-4.4,5.1-6.5,9.4-6.9c9.9-1,34.4-2,36.4-1.8c-0.4-2.2-1.4-4.8-1.4-7.5
		c-0.1-2.8,0.3-5.8,1-8.5c0.6-2.2,0.7-4-0.2-6.1c-1.8-4.2-3.1-8.6-2.3-13.3c0.5-3.1,2.6-4.7,5.5-3.6c2.8,1,5.6,2.5,8.1,4.3
		c1.9,1.3,3.5,1.9,5.7,1.1c4.9-1.8,10.1-2,15.2-1.6c2.6,0.2,4.6-0.7,6.5-2.3c2-1.5,4-3.1,6.2-4.2c3.1-1.5,5.3-0.5,6.1,2.9
		c0.5,2.3,0.4,4.7,0.6,7c0.1,0.8,0.2,1.9,0.7,2.4c0.4,0.3,1.6-0.1,2.2-0.5c6.6-3.6,13.7-5.2,21.1-4.9c7.3,0.3,14.3,2,21,5.1
		c0.4,0.2,0.8,0.4,1.2,0.5c2.8,1,4.2-0.2,3.8-3.2c-1.4-10-6.4-18-13.6-24.8c-4.6-4.3-9.5-8.1-15.6-10c-1.5-0.5-2.7-1.6-2.5-3.1
		c0.2-1.2,0.7-9.2,8.4-6.3c7.1,2.6,12.7,8.3,18.1,13.3c10.5,9.5,15.5,21.8,18,35.4c2.1,11.4,3,22.9,2.7,34.5
		c-0.2,5.9-0.8,11.8-1.1,17.7c-0.6,10-1.1,20-1.7,30c-0.1,2.3-0.4,4.6-0.7,6.9c-0.1,0.7-0.5,1.5-0.8,2.1c-1,1.9-2.6,3.1-4.8,2.8
		c-2.1-0.3-3.7-1.5-4.4-3.5c-0.4-1.2-0.7-2.5-0.7-3.8c0.1-7.6,0.2-15.2,0.4-22.7c0.1-3,0.2-6,0.2-9.1c0-2.9-1-4.3-3.2-4.5
		c-2-0.1-3.6,1.6-3.7,4.3c-0.1,6.7-0.1,13.5-0.1,20.3c0,3.4-0.6,11-0.8,13.1c-0.3,3.3-2.5,5.6-5.2,5.9c-2.4,0.2-5.2-1.7-6-4.5
		c-0.6-2.2-0.5-20.5-0.5-25.8c0-2.4-0.1-4.8-0.3-7.1c-0.3-3.4-2.3-5.7-5.7-6.2c-2.8-0.4-5.8-0.6-8.6-0.4c-4.3,0.4-8.7,0.9-12.9,1.9
		c-5.2,1.2-7.4,4.9-7.3,10.3c0.1,7.5,0,15-0.2,22.5c-0.1,1.9-0.7,3.9-1.5,5.7c-1.6,3.6-5.4,4-7.9,1.1c-2.2-2.5-2.5-5.7-2.5-8.9
		c-0.1-6.3,0-12.6,0-18.9c0-0.6-0.1-1.3-0.3-1.9c-0.7-2.2-2-3.4-3.5-3.3c-1.5,0.1-3,1.5-3.2,3.6c-0.2,3.9-0.1,7.8-0.2,11.7
		c-0.1,4.4,0,8.7-0.2,13.1c-0.1,1.3-0.6,2.8-1.3,4c-1.9,3.5-5.8,3.7-7.8,0.2c-1.1-1.9-2-4.1-2.2-6.3c-0.5-4.1-0.6-8.3-0.7-12.5
		c-0.1-6.2,0.9-12.5-0.6-18.6c-0.2-0.9-0.5-1.7-0.9-2.5c-0.9-1.9-2.2-3.2-4.7-3.3C59.1,104.6,55.6,103.9,51.8,103.4z M52.6,87.1
		c0,4.4,0,8.1,0,11.8c0,3.3,0.1,3.4,3.3,4c12.3,2.1,24.3,0.6,36.5-1.7c13.9-2.6,25.1-14.2,25.8-15.2c-1.3-0.4-22.7,0.2-31.9,0.3
		c-0.6,0-1.3-0.1-1.9,0.2c-0.5,0.2-1.2,0.6-1.2,1.1c-0.3,2.8-1.8,4-5.3,2.5c-2.2,1.9-5.2,1.3-5.3-0.6c-0.1-2.7-6.5-2.4-7.6-2.4
		C60.9,87.1,56.9,87.1,52.6,87.1z M90.2,80.6c4.1,0.1,7.5-3.1,7.6-7.1c0.1-4.1-3.2-7.5-7.3-7.6c-4,0-7.4,3.3-7.5,7.2
		C82.8,77.2,86,80.5,90.2,80.6z M63.1,81.4c4.1,0,7.3-3.2,7.3-7.1c0-4.1-3.3-7.3-7.4-7.2c-4,0.1-7.3,3.4-7.3,7.2
		C55.8,78.2,59.1,81.4,63.1,81.4z"/>
	<path id="knife" class="st4" d="M86.3,86.4c-0.6,0-1.3-0.1-1.9,0.2c-0.5,0.2-1.2,0.6-1.2,1.1c-0.3,2.8-1.8,4-5.3,2.5
		c-2.2,1.9-5.2,1.3-5.3-0.6c-0.1-2.7-6.5-2.4-7.6-2.4c-4,0-8.1,0-12.3,0c0,4.4,0,8.1,0,11.8c0,3.3,0.1,3.4,3.3,4
		c12.3,2.1,24.3,0.6,36.5-1.7c13.9-2.6,25.1-14.2,25.8-15.2C117,85.6,95.5,86.2,86.3,86.4z"/>
	<path id="cut" class="st6" d="M8.5,106.9c4.3,3.5,8.2,3.6,13.4,0.2c1.6-1,3.1-1.1,5.2-0.9c5.9,0.5,11.2,0.9,16.6,0.9
		c3,0,6.4-0.3,8.5-2.8c1,0.1,2,0.3,2.9,0.4c2.5,0.4,4.9,0.8,7.4,0.9c2.2,0.1,3.2,1.2,4,2.8c0.3,0.7,0.6,1.5,0.8,2.4
		c1,4.2,0.9,8.6,0.7,12.8c-0.1,1.8-0.1,3.7-0.1,5.6c0.1,4.7,0.2,8.6,0.7,12.6c0.3,2.1,1.1,4.4,2.3,6.6c1.1,1.9,2.7,2.9,4.5,2.9
		c0,0,0,0,0.1,0c1.9,0,3.6-1.2,4.7-3.2c0.9-1.6,1.3-3,1.4-4.3c0.2-3.2,0.2-6.4,0.2-9.6c0-1.2,0-2.4,0-3.5c0-1.2,0-2.4,0-3.5
		c0-2.7,0-5.5,0.2-8.2c0.1-1.7,1.3-2.8,2.4-2.8c1.2-0.1,2.2,0.9,2.7,2.7c0.2,0.5,0.2,1.1,0.2,1.7c0,2.3,0,4.6,0,6.8c0,4,0,8,0,12.1
		c0,3.3,0.3,6.7,2.7,9.4c1.5,1.7,3.3,2.5,5.2,2.2c1.8-0.3,3.3-1.5,4.1-3.5c1-2.2,1.5-4.2,1.5-6c0.3-8.8,0.3-15.9,0.2-22.6
		c-0.1-5.3,2.1-8.4,6.7-9.5c4.6-1.1,9.3-1.5,12.8-1.8c2.6-0.2,5.4-0.1,8.4,0.4c2.9,0.4,4.7,2.4,5,5.4c0.2,2.1,0.3,4.4,0.3,7
		c0,0.6,0,1.3,0,2.2c0,11.3,0,22,0.5,23.8c0.9,3.1,4,5.3,6.9,5.1c3.2-0.3,5.6-3,6-6.6c0.2-1.9,0.8-9.6,0.8-13.2c0-3,0-6.1,0.1-9.1
		c0-3.7,0-7.4,0.1-11.1c0-1.2,0.4-2.3,1.1-2.9c0.5-0.4,1.1-0.7,1.7-0.6c1.2,0.1,2.4,0.6,2.4,3.6c0,1.9-0.1,3.8-0.1,5.7
		c0,1.1-0.1,2.3-0.1,3.4l-0.1,4.8c-0.1,5.9-0.2,12-0.3,18c0,1.2,0.2,2.5,0.8,4c0.8,2.3,2.6,3.7,5.1,4.1c0.3,0,0.5,0,0.7,0
		c2,0,3.7-1.1,4.9-3.3c0.4-0.8,0.8-1.6,0.9-2.4c0.3-2.5,0.6-4.8,0.7-6.9c0.3-5.1,0.6-10.2,0.9-15.2c0.3-4.9,0.5-9.9,0.8-14.8
		c0.1-2.2,0.3-4.4,0.5-6.6c0.3-3.6,0.6-7.4,0.7-11.1c0.4-11.6-0.6-23.3-2.7-34.7c-3-15.8-8.8-27.2-18.3-35.8c-0.7-0.6-1.3-1.2-2-1.8
		c-4.9-4.6-10-9.3-16.5-11.6c-2.5-0.9-4.6-0.9-6.2,0.1c-2.7,1.6-3.2,5.4-3.3,6.6c0,0.1,0,0.2,0,0.2c-0.3,1.7,0.9,3.3,3,4
		c5.1,1.6,9.9,4.7,15.3,9.8c7.7,7.4,12.1,15.3,13.4,24.4c0.2,1.2,0,2-0.4,2.4c-0.4,0.3-1.2,0.3-2.3-0.1c-0.3-0.1-0.5-0.2-0.8-0.4
		c-0.1-0.1-0.2-0.1-0.3-0.2c-6.9-3.1-14.1-4.9-21.3-5.1c-7.8-0.3-15,1.4-21.6,5c-0.5,0.3-1.1,0.5-1.4,0.5c-0.2-0.4-0.3-1.3-0.4-1.7
		c-0.1-0.8-0.1-1.7-0.2-2.5c-0.1-1.5-0.1-3.1-0.5-4.6c-0.6-2.4-1.8-3.4-2.7-3.8c-1.3-0.6-2.9-0.5-4.6,0.4c-2.3,1.1-4.3,2.7-6.3,4.3
		c-2.1,1.6-3.8,2.2-5.9,2.1c-4.7-0.3-10.2-0.4-15.6,1.7c-1.9,0.7-3.2,0.2-4.9-1c-2.7-1.9-5.5-3.4-8.3-4.4c-1.6-0.6-3-0.5-4.2,0.2
		c-1.3,0.7-2.1,2.2-2.4,4c-0.7,4.2,0.1,8.5,2.4,13.7c0.9,2,0.7,3.6,0.2,5.6c-0.8,3-1.1,6-1.1,8.7c0.1,2,0.6,3.9,1,5.7
		c0.1,0.3,0.2,0.6,0.2,1c-5.5,0-26.8,0.9-35.5,1.8c-5,0.5-8.5,3.1-10.1,7.5C3.4,97.8,4.9,104,8.5,106.9z"/>
	<g id="eyes" class="st4">
		<path class="st5" d="M63.2,81.4c4.1,0,7.3-3.2,7.3-7.1c0-4.1-3.3-7.3-7.4-7.2c-4,0.1-7.3,3.4-7.3,7.2
			C55.8,78.3,59.1,81.5,63.2,81.4z M63.2,68.8c3,0,5.6,2.6,5.6,5.5c0,2.9-2.6,5.4-5.6,5.5c-3.1,0-5.6-2.4-5.6-5.4
			C57.6,71.2,60.1,68.8,63.2,68.8z"/>
		<path class="st5" d="M90.2,80.7c4.1,0.1,7.5-3.1,7.6-7.1c0.1-4.1-3.2-7.5-7.3-7.6c-4,0-7.4,3.3-7.5,7.2
			C82.8,77.3,86.1,80.6,90.2,80.7z M90.3,67.8c3.2,0,5.7,2.3,5.7,5.5c0,3.1-2.5,5.6-5.6,5.7c-3.1,0-5.7-2.5-5.7-5.6
			C84.7,70.3,87.1,67.9,90.3,67.8z"/>
	</g>
</g>
</svg>
